<svg width="150" height="180" viewBox="0 0 150 180" fill="none" xmlns="http://www.w3.org/2000/svg">
<rect width="150" height="180" fill="#1E1E1E"/>
<rect width="150" height="180" rx="5" fill="#F0F0F0"/>
<path fill-rule="evenodd" clip-rule="evenodd" d="M5 3.8147e-06C2.23858 3.8147e-06 0 2.23858 0 5.00001V175C0 177.761 2.23858 180 5 180H40.4276C39.3793 159.369 36.3788 91.3508 40.5472 59.499C40.6758 58.5163 41.1606 57.6504 41.9642 57.0704C55.5936 47.2313 85.9271 47.0472 96.8955 47.3285C99.1305 47.3858 100.818 49.2432 100.656 51.4731C99.2467 70.9011 93.4926 155.674 98.5183 180H145C147.761 180 150 177.761 150 175V5C150 2.23858 147.761 3.8147e-06 145 3.8147e-06H5Z" fill="#046094"/>
</svg>
